<svg width="55" height="55" viewBox="0 0 55 55" fill="none" xmlns="http://www.w3.org/2000/svg">
<path d="M27.1022 27.327L50.5724 27.327C43.6408 27.327 37.411 24.3222 33.1147 19.544L27.1022 27.327Z" fill="#1784FE"/>
<path d="M27.1022 27.327L27.1022 50.7971C27.1022 37.835 37.6102 27.327 50.5723 27.327L27.1022 27.327Z" fill="#1784FE"/>
<path d="M27.1023 50.7971V27.327L20.357 34.3312C24.5284 38.5678 27.1023 44.3819 27.1023 50.7971Z" fill="#1784FE"/>
<path fill-rule="evenodd" clip-rule="evenodd" d="M42.6197 26.2484C44.6806 22.7442 44.8656 19.8107 43.7426 17.8656C42.6196 15.9205 39.9866 14.614 35.9214 14.6467C31.9275 14.6788 27.0078 16.0371 22.1848 18.8217C17.3617 21.6062 13.7256 25.1877 11.7008 28.6305C9.63987 32.1347 9.45492 35.0682 10.5779 37.0133C11.7009 38.9583 14.3339 40.2649 18.3991 40.2322C22.393 40.2001 27.3127 38.8418 32.1357 36.0572C36.9588 33.2726 40.5949 29.6912 42.6197 26.2484ZM33.1735 37.8546C43.3243 31.994 48.861 22.58 45.54 16.8279C42.219 11.0757 31.2979 11.1636 21.147 17.0242C10.9962 22.8848 5.45948 32.2988 8.78049 38.051C12.1015 43.8032 23.0226 43.7152 33.1735 37.8546Z" fill="#FFC700" fill-opacity="0.69"/>
<path d="M27.1022 27.327L27.1022 3.85691C27.1022 16.8191 16.5943 27.327 3.6321 27.327L27.1022 27.327Z" fill="#1784FE"/>
<path d="M27.1022 27.327H3.63211C11.3665 27.327 18.227 31.0682 22.5028 36.8396L27.1022 27.327Z" fill="#1784FE"/>
<path d="M27.1022 3.8569L27.1022 27.327L36.0959 22.332C30.6202 18.0353 27.1022 11.3569 27.1022 3.8569Z" fill="#1784FE"/>
<ellipse cx="12.2281" cy="40.4717" rx="3.80503" ry="3.80503" fill="#F93844"/>
</svg>
